<svg id="Capa_1" data-name="Capa 1" xmlns="http://www.w3.org/2000/svg" viewBox="0 0 512 384.01"><defs><style>.cls-1{fill:#fff;}</style></defs><path class="cls-1" d="M411.32,260.67l-160-160A16,16,0,0,0,224,112v80h-7.46A200.36,200.36,0,0,1,45.66,97.31L29.56,71.52A16,16,0,0,0,16,64a16.28,16.28,0,0,0-5.35.93A16,16,0,0,0,.12,82l8.2,65.47C22.2,258.72,113.56,343.9,224,351.45V432a16,16,0,0,0,27.32,11.33l160-160A16.05,16.05,0,0,0,411.32,260.67ZM377.37,272,256,393.37V336a16,16,0,0,0-16-16C138.59,320,52.64,244.13,40.06,143.45A232,232,0,0,0,216.54,224H240a16,16,0,0,0,16-16V150.62Z" transform="translate(0 -64)"/><path class="cls-1" d="M507.32,260.67l-160-160A16.07,16.07,0,0,0,336,96a16,16,0,0,0-11.3,27.33L473.37,272,324.7,420.7a16,16,0,0,0,22.62,22.63l160-160A16,16,0,0,0,507.32,260.67Z" transform="translate(0 -64)"/></svg>